<?xml version="1.0" standalone="no"?>
<!DOCTYPE svg PUBLIC "-//W3C//DTD SVG 20010904//EN"
 "http://www.w3.org/TR/2001/REC-SVG-20010904/DTD/svg10.dtd">
<svg version="1.0" xmlns="http://www.w3.org/2000/svg"
 width="2662.000000pt" height="2662.000000pt" viewBox="0 0 2662.000000 2662.000000"
 preserveAspectRatio="xMidYMid meet">

<g transform="translate(0.000000,2662.000000) scale(0.100000,-0.100000)"
fill="#000000" stroke="none">
<path d="M24342 22434 c-264 -42 -561 -170 -867 -373 -280 -185 -1023 -761
-1555 -1205 -1090 -910 -2067 -1838 -3325 -3156 -287 -301 -851 -916 -1254
-1367 l-144 -161 -142 5 c-684 26 -1248 -296 -1816 -1037 -63 -83 -293 -402
-394 -549 -237 -343 -423 -593 -625 -841 -415 -508 -812 -895 -1257 -1226
-115 -86 -410 -283 -506 -338 l-47 -27 -38 41 c-60 67 -336 320 -487 445 -340
284 -839 635 -1390 980 -121 75 -236 147 -255 160 -19 13 -132 83 -250 156
-118 74 -226 142 -240 151 -24 17 -25 23 -31 170 -30 666 -173 1080 -472 1364
-152 145 -286 209 -437 209 -188 -1 -323 -90 -551 -365 -128 -155 -188 -236
-311 -425 -198 -303 -356 -616 -483 -958 l-48 -127 -100 -55 c-55 -30 -102
-55 -105 -55 -12 0 -521 346 -522 355 0 6 32 35 71 65 120 93 224 210 269 303
74 155 76 270 6 412 -80 160 -239 262 -446 285 -188 21 -525 -32 -845 -134
-60 -19 -113 -32 -116 -28 -3 4 -18 39 -33 77 -182 465 -631 788 -1190 856
-137 16 -392 7 -529 -20 -288 -58 -579 -201 -793 -392 -373 -332 -540 -773
-508 -1342 5 -88 7 -162 4 -166 -3 -3 -88 -7 -190 -7 -530 -3 -859 -124 -1139
-420 -144 -152 -243 -328 -304 -539 -30 -106 -31 -117 -31 -290 0 -166 2 -187
27 -270 117 -390 426 -647 866 -720 170 -29 396 -11 596 46 75 21 245 89 298
118 28 16 80 39 115 51 54 17 69 19 105 9 47 -13 227 -95 227 -104 0 -3 -48
-28 -106 -55 -287 -134 -444 -304 -500 -537 -35 -151 -5 -352 78 -518 129
-257 395 -456 815 -611 73 -27 133 -54 133 -60 0 -7 -11 -19 -25 -28 -80 -53
-200 -250 -231 -382 -21 -87 -21 -246 -1 -339 57 -257 241 -494 504 -648 l81
-48 13 -82 c18 -104 18 -409 0 -537 -16 -118 -56 -324 -115 -587 -100 -442
-126 -618 -126 -843 0 -233 35 -400 117 -564 170 -341 482 -566 956 -690 341
-89 773 -135 1147 -122 437 16 675 60 1186 219 362 113 488 127 796 88 859
-110 1667 -128 4053 -91 1435 23 3545 75 4450 110 138 5 554 21 925 35 371 14
756 30 855 35 99 5 335 17 525 25 493 22 930 44 1115 55 88 6 333 19 545 30
446 23 692 38 770 45 30 3 210 14 400 25 190 11 442 27 560 35 118 9 382 27
585 40 800 54 935 70 1120 135 104 37 174 74 265 141 267 197 548 644 785
1254 140 359 280 904 320 1243 18 149 20 429 4 557 -35 289 -149 541 -329 729
-206 215 -425 304 -750 306 -4 0 -12 17 -20 37 -27 76 -96 176 -171 247 -78
75 -151 117 -259 151 -72 22 -264 31 -360 16 -142 -22 -345 -101 -482 -187
-31 -20 -43 -23 -48 -13 -5 7 -20 78 -35 158 -15 80 -40 205 -55 276 -15 72
-31 148 -35 170 -11 65 -101 430 -140 570 -269 957 -646 1554 -1210 1921 -174
113 -413 217 -608 263 -220 52 -313 63 -583 68 -346 7 -547 -12 -889 -83 -362
-75 -962 -283 -1455 -504 -63 -28 -122 -54 -130 -57 -14 -6 -408 -186 -585
-268 -172 -80 -188 -86 -178 -59 6 16 244 453 315 578 l33 59 140 28 c378 75
635 267 805 604 168 331 194 723 64 973 -7 14 -10 30 -6 36 22 37 189 270 279
389 290 386 584 728 898 1042 619 621 1106 914 1810 1089 287 71 454 97 1175
181 614 72 988 152 1314 279 486 191 908 475 1301 877 376 385 619 793 734
1239 126 483 98 975 -75 1323 -67 136 -129 223 -239 333 -97 99 -207 180 -321
237 -56 28 -211 79 -294 97 -89 19 -312 21 -418 4z m440 -223 c268 -70 510
-266 635 -516 218 -434 176 -1110 -102 -1653 -348 -681 -1089 -1305 -1855
-1564 -337 -114 -652 -170 -1455 -263 -622 -71 -982 -147 -1322 -276 -305
-115 -612 -287 -901 -503 -564 -423 -1251 -1192 -1837 -2058 -453 -669 -796
-1261 -1660 -2863 -197 -365 -358 -626 -473 -765 -277 -335 -562 -490 -904
-490 -134 0 -226 20 -336 72 -254 120 -379 416 -317 753 55 304 211 559 756
1240 243 304 690 821 776 898 18 16 27 16 94 6 101 -16 349 -5 464 19 196 42
388 140 480 245 52 59 109 166 130 247 19 72 19 210 0 284 -24 92 -83 194
-149 258 -53 52 -57 59 -45 75 43 55 481 550 824 933 1853 2065 3425 3585
4995 4832 151 120 291 232 311 248 133 107 589 443 709 522 292 193 554 307
770 338 104 14 323 4 412 -19z m-7782 -6255 c0 -8 -4 -17 -9 -20 -5 -4 -105
-115 -222 -249 -117 -133 -217 -245 -221 -248 -5 -3 -35 -2 -66 4 -71 11 -199
3 -246 -17 -42 -17 -56 -42 -56 -96 0 -33 6 -48 30 -71 l29 -30 103 7 c87 5
113 3 165 -14 118 -38 216 -136 244 -246 18 -70 7 -193 -21 -252 -63 -130
-187 -210 -412 -265 -77 -19 -121 -23 -253 -24 -146 0 -165 2 -214 23 -79 35
-102 27 -192 -66 -381 -390 -1034 -1186 -1314 -1603 -217 -322 -315 -593 -315
-872 0 -402 202 -698 558 -817 123 -40 231 -54 386 -47 462 19 851 293 1200
846 82 131 131 216 331 579 l140 253 260 118 c143 65 370 169 505 231 456 210
766 340 1065 449 645 234 1212 336 1676 302 208 -15 272 -25 444 -67 485 -122
853 -391 1156 -848 326 -489 533 -1109 743 -2216 25 -129 48 -255 51 -279 4
-26 18 -55 35 -75 24 -26 35 -31 72 -30 36 0 59 11 143 67 251 169 456 239
659 224 170 -13 293 -85 369 -219 46 -80 46 -80 -35 -128 -107 -63 -250 -212
-387 -405 -90 -126 -147 -192 -265 -310 -199 -198 -368 -316 -611 -427 -224
-103 -390 -146 -587 -155 -118 -5 -130 -8 -152 -30 -42 -42 -38 -109 10 -154
25 -23 31 -24 157 -23 153 1 265 20 417 70 195 65 392 164 595 299 256 170
394 305 574 565 133 191 279 356 298 337 3 -4 -5 -43 -17 -89 -24 -90 -37
-224 -26 -282 4 -19 18 -49 32 -66 22 -25 33 -30 71 -30 36 0 50 6 74 29 28
28 29 34 29 118 1 127 29 233 89 328 14 22 30 56 37 75 l13 35 61 -2 c119 -5
322 -93 413 -178 l28 -27 -21 -31 c-45 -67 -109 -215 -126 -292 -10 -44 -18
-117 -18 -163 -1 -82 0 -84 32 -113 46 -42 93 -40 138 5 30 30 34 40 34 86 0
105 67 315 105 327 15 4 79 -127 109 -222 68 -213 76 -552 20 -878 -90 -528
-248 -1016 -480 -1487 -300 -609 -526 -823 -942 -894 -171 -30 -670 -68 -1572
-121 -239 -14 -498 -30 -575 -35 -77 -6 -419 -26 -760 -45 -341 -19 -692 -39
-780 -45 -88 -5 -356 -19 -595 -30 -239 -11 -523 -24 -630 -30 -372 -19 -628
-30 -1165 -50 -297 -11 -634 -25 -750 -30 -195 -9 -719 -26 -1575 -50 -195 -5
-512 -14 -705 -20 -312 -9 -574 -14 -1650 -35 -1340 -26 -3315 -34 -3755 -15
-442 18 -735 42 -1065 87 -70 9 -191 16 -290 16 -248 0 -316 -14 -795 -166
-377 -119 -738 -166 -1190 -153 -721 19 -1230 180 -1503 476 -192 207 -265
430 -253 770 7 229 24 325 150 850 91 381 111 541 103 828 l-5 204 26 -5 c15
-3 70 -14 122 -26 52 -11 141 -25 197 -31 133 -14 160 -2 187 83 9 28 -20 84
-52 101 -16 8 -85 22 -154 30 -309 39 -537 133 -709 294 -132 124 -208 256
-234 411 -41 237 72 461 281 557 l75 34 152 -41 c151 -40 490 -118 600 -138
l58 -11 237 -228 c430 -416 661 -617 1011 -882 116 -88 171 -136 183 -160 31
-62 78 -218 94 -313 19 -107 14 -321 -10 -426 -13 -55 -13 -69 -1 -97 25 -59
109 -83 158 -44 31 25 41 55 61 186 20 127 20 261 1 388 -22 148 -24 143 32
111 664 -379 1107 -538 1833 -659 473 -79 741 -100 1270 -100 954 0 1481 94
2046 364 648 309 1151 781 1422 1332 104 212 171 424 214 678 20 117 16 463
-6 585 -80 441 -264 825 -584 1220 -45 54 -79 102 -77 106 3 3 57 39 122 79
634 396 1197 913 1754 1610 179 224 322 417 555 750 414 588 481 678 652 860
366 393 702 594 1091 655 123 19 261 19 261 1z m-12575 -130 c370 -57 660
-225 851 -491 53 -75 144 -260 147 -299 2 -27 -4 -33 -80 -75 -224 -125 -403
-283 -468 -414 -34 -70 -39 -89 -43 -168 -4 -81 -2 -94 23 -145 62 -127 231
-180 402 -126 240 76 412 359 413 678 0 61 4 95 13 102 39 31 422 133 611 162
91 14 279 14 341 0 132 -30 245 -152 245 -266 0 -106 -135 -270 -353 -428
-134 -97 -158 -138 -123 -204 9 -17 116 -95 300 -217 163 -109 285 -196 285
-205 0 -8 -41 -40 -91 -70 -157 -95 -456 -298 -636 -431 -456 -340 -781 -626
-1197 -1052 l-242 -249 -52 26 c-140 71 -361 140 -526 165 -200 30 -473 23
-682 -18 -77 -15 -97 -16 -120 -5 -16 7 -104 49 -198 94 -93 44 -197 90 -229
101 -123 40 -223 21 -451 -85 -375 -174 -772 -178 -1060 -10 -101 59 -247 203
-292 289 -183 351 -99 778 214 1088 104 102 168 149 288 208 173 85 364 119
663 119 151 0 194 -3 205 -14 10 -11 16 -57 20 -178 10 -244 45 -386 122 -503
69 -103 173 -159 294 -157 193 2 346 198 343 437 -3 241 -195 460 -492 560
l-65 22 -8 74 c-4 41 -8 171 -9 289 -1 186 2 229 20 317 122 573 559 975 1168
1078 105 17 337 18 449 1z m13622 -753 c4 -21 8 -94 7 -163 -2 -285 -121 -562
-327 -756 -90 -86 -209 -157 -316 -188 -73 -21 -95 -21 -86 2 19 51 360 622
533 892 69 107 132 207 141 222 22 38 39 35 48 -9z m-12587 -331 c0 -55 -34
-181 -65 -242 -70 -138 -227 -237 -316 -200 -42 18 -52 48 -33 109 16 56 68
127 140 190 53 47 249 181 265 181 5 0 9 -17 9 -38z m-2513 -964 c73 -44 149
-120 179 -180 38 -75 37 -170 -4 -247 -35 -67 -84 -105 -125 -97 -74 15 -125
85 -157 216 -20 86 -39 323 -27 354 6 15 10 15 44 1 21 -9 61 -30 90 -47z
m4997 -737 c27 -12 147 -84 266 -160 483 -309 820 -495 1183 -655 353 -156
720 -259 1077 -303 178 -22 647 -24 845 -5 169 17 606 84 764 116 68 14 127
26 131 26 11 0 204 -217 297 -332 368 -460 551 -954 530 -1428 -22 -493 -243
-985 -617 -1374 -371 -386 -866 -685 -1390 -841 -501 -148 -1410 -205 -2160
-134 -267 25 -445 50 -715 100 -207 39 -586 136 -605 155 -6 6 20 48 62 104
676 904 935 1993 738 3099 -64 355 -184 708 -362 1066 -80 159 -109 211 -221
383 -78 121 -79 122 -63 147 10 14 31 35 49 46 40 25 119 21 191 -10z m2658
-421 c105 -30 164 -149 123 -248 -61 -145 -251 -158 -342 -23 -48 72 -20 196
54 242 61 38 105 45 165 29z m-6908 -1264 c325 -77 587 -276 723 -551 58 -116
68 -150 53 -186 -27 -65 -104 -89 -159 -49 -16 11 -36 40 -46 67 -47 130 -165
279 -290 368 -178 126 -390 183 -649 172 -144 -5 -173 2 -194 48 -33 72 5 137
89 155 24 5 116 7 204 5 126 -3 183 -9 269 -29z m3909 -1447 c110 -36 151 -97
149 -218 -3 -216 -217 -315 -375 -172 -55 49 -77 101 -77 181 0 78 23 134 71
174 71 60 130 69 232 35z"/>
<path d="M24530 21347 c-25 -9 -40 -23 -53 -49 -16 -33 -17 -44 -6 -98 36
-183 -26 -440 -178 -744 -427 -853 -1303 -1369 -2262 -1333 l-163 6 -29 -28
c-76 -77 -33 -167 89 -182 109 -14 336 -9 507 10 237 28 442 80 705 180 175
66 464 239 650 387 114 92 286 266 389 394 235 292 418 657 482 958 23 105 30
285 16 385 -14 95 -71 139 -147 114z"/>
<path d="M19038 10924 c-29 -15 -58 -61 -58 -89 0 -9 7 -29 15 -45 12 -24 51
-47 198 -119 293 -144 512 -299 736 -522 292 -292 476 -579 643 -1008 29 -74
38 -87 71 -104 34 -18 41 -18 75 -5 25 9 44 26 57 50 18 33 18 41 7 85 -35
128 -172 422 -275 588 -311 502 -781 916 -1292 1137 -119 52 -136 55 -177 32z"/>
<path d="M11242 10275 c-314 -109 -627 -399 -726 -673 -49 -136 -28 -240 59
-303 87 -63 321 -95 625 -86 340 11 472 65 515 211 33 110 6 499 -46 654 -29
86 -75 151 -133 187 -43 26 -60 30 -135 33 -71 2 -99 -2 -159 -23z"/>
</g>
</svg>
